<?xml version="1.0" encoding="utf-8"?><!DOCTYPE svg PUBLIC "-//W3C//DTD SVG 1.1//EN" "http://www.w3.org/Graphics/SVG/1.1/DTD/svg11.dtd">
    <svg xmlns="http://www.w3.org/2000/svg" viewBox="0 0 25 25" shape-rendering="geometricPrecision">
    <defs>
    <linearGradient id="0.32874953026943854__patternData" x1="0%" y1="0%" x2="100%" y2="100%">
    <stop offset="0%" stop-color="#000" stop-opacity="1"></stop>
    <stop offset="100%" stop-color="#000" stop-opacity="0.5"></stop>
    </linearGradient>
    <linearGradient id="0.32874953026943854__patternInner" x1="0%" y1="0%" x2="100%" y2="100%">
    <stop offset="0%" stop-color="#000000" stop-opacity="0.60"></stop>
    <stop offset="100%" stop-color="#000" stop-opacity="1"></stop>
    </linearGradient>
    <linearGradient id="0.32874953026943854__patternOuter" x1="0%" y1="0%" x2="100%" y2="100%">
    <stop offset="0%" stop-color="#000" stop-opacity="1"></stop>
    <stop offset="100%" stop-color="#000" stop-opacity="1"></stop>
    </linearGradient>
    <mask id="0.32874953026943854__maskData"><g fill="#fff" stroke="#fff" stroke-width="0.04"><g transform="translate(10,3)"><path d='M 0,0 H 1 V 1 H 0 Z'></path></g>
<g transform="translate(10,4)"><path d='M 0,0 H 1 V 1 H 0 Z'></path></g>
<g transform="translate(13,4)"><path d='M 0,0 H 1 V 1 H 0 Z'></path></g>
<g transform="translate(14,4)"><path d='M 0,0 H 1 V 1 H 0 Z'></path></g>
<g transform="translate(10,5)"><path d='M 0,0 H 1 V 1 H 0 Z'></path></g>
<g transform="translate(13,5)"><path d='M 0,0 H 1 V 1 H 0 Z'></path></g>
<g transform="translate(10,6)"><path d='M 0,0 H 1 V 1 H 0 Z'></path></g>
<g transform="translate(11,6)"><path d='M 0,0 H 1 V 1 H 0 Z'></path></g>
<g transform="translate(12,6)"><path d='M 0,0 H 1 V 1 H 0 Z'></path></g>
<g transform="translate(14,6)"><path d='M 0,0 H 1 V 1 H 0 Z'></path></g>
<g transform="translate(10,7)"><path d='M 0,0 H 1 V 1 H 0 Z'></path></g>
<g transform="translate(10,8)"><path d='M 0,0 H 1 V 1 H 0 Z'></path></g>
<g transform="translate(12,8)"><path d='M 0,0 H 1 V 1 H 0 Z'></path></g>
<g transform="translate(14,8)"><path d='M 0,0 H 1 V 1 H 0 Z'></path></g>
<g transform="translate(11,9)"><path d='M 0,0 H 1 V 1 H 0 Z'></path></g>
<g transform="translate(12,9)"><path d='M 0,0 H 1 V 1 H 0 Z'></path></g>
<g transform="translate(13,9)"><path d='M 0,0 H 1 V 1 H 0 Z'></path></g>
<g transform="translate(4,10)"><path d='M 0,0 H 1 V 1 H 0 Z'></path></g>
<g transform="translate(7,10)"><path d='M 0,0 H 1 V 1 H 0 Z'></path></g>
<g transform="translate(8,10)"><path d='M 0,0 H 1 V 1 H 0 Z'></path></g>
<g transform="translate(9,10)"><path d='M 0,0 H 1 V 1 H 0 Z'></path></g>
<g transform="translate(10,10)"><path d='M 0,0 H 1 V 1 H 0 Z'></path></g>
<g transform="translate(12,10)"><path d='M 0,0 H 1 V 1 H 0 Z'></path></g>
<g transform="translate(14,10)"><path d='M 0,0 H 1 V 1 H 0 Z'></path></g>
<g transform="translate(15,10)"><path d='M 0,0 H 1 V 1 H 0 Z'></path></g>
<g transform="translate(17,10)"><path d='M 0,0 H 1 V 1 H 0 Z'></path></g>
<g transform="translate(18,10)"><path d='M 0,0 H 1 V 1 H 0 Z'></path></g>
<g transform="translate(19,10)"><path d='M 0,0 H 1 V 1 H 0 Z'></path></g>
<g transform="translate(20,10)"><path d='M 0,0 H 1 V 1 H 0 Z'></path></g>
<g transform="translate(21,10)"><path d='M 0,0 H 1 V 1 H 0 Z'></path></g>
<g transform="translate(2,11)"><path d='M 0,0 H 1 V 1 H 0 Z'></path></g>
<g transform="translate(3,11)"><path d='M 0,0 H 1 V 1 H 0 Z'></path></g>
<g transform="translate(6,11)"><path d='M 0,0 H 1 V 1 H 0 Z'></path></g>
<g transform="translate(13,11)"><path d='M 0,0 H 1 V 1 H 0 Z'></path></g>
<g transform="translate(15,11)"><path d='M 0,0 H 1 V 1 H 0 Z'></path></g>
<g transform="translate(20,11)"><path d='M 0,0 H 1 V 1 H 0 Z'></path></g>
<g transform="translate(21,11)"><path d='M 0,0 H 1 V 1 H 0 Z'></path></g>
<g transform="translate(22,11)"><path d='M 0,0 H 1 V 1 H 0 Z'></path></g>
<g transform="translate(2,12)"><path d='M 0,0 H 1 V 1 H 0 Z'></path></g>
<g transform="translate(3,12)"><path d='M 0,0 H 1 V 1 H 0 Z'></path></g>
<g transform="translate(4,12)"><path d='M 0,0 H 1 V 1 H 0 Z'></path></g>
<g transform="translate(7,12)"><path d='M 0,0 H 1 V 1 H 0 Z'></path></g>
<g transform="translate(8,12)"><path d='M 0,0 H 1 V 1 H 0 Z'></path></g>
<g transform="translate(10,12)"><path d='M 0,0 H 1 V 1 H 0 Z'></path></g>
<g transform="translate(11,12)"><path d='M 0,0 H 1 V 1 H 0 Z'></path></g>
<g transform="translate(12,12)"><path d='M 0,0 H 1 V 1 H 0 Z'></path></g>
<g transform="translate(14,12)"><path d='M 0,0 H 1 V 1 H 0 Z'></path></g>
<g transform="translate(16,12)"><path d='M 0,0 H 1 V 1 H 0 Z'></path></g>
<g transform="translate(17,12)"><path d='M 0,0 H 1 V 1 H 0 Z'></path></g>
<g transform="translate(18,12)"><path d='M 0,0 H 1 V 1 H 0 Z'></path></g>
<g transform="translate(19,12)"><path d='M 0,0 H 1 V 1 H 0 Z'></path></g>
<g transform="translate(20,12)"><path d='M 0,0 H 1 V 1 H 0 Z'></path></g>
<g transform="translate(22,12)"><path d='M 0,0 H 1 V 1 H 0 Z'></path></g>
<g transform="translate(3,13)"><path d='M 0,0 H 1 V 1 H 0 Z'></path></g>
<g transform="translate(4,13)"><path d='M 0,0 H 1 V 1 H 0 Z'></path></g>
<g transform="translate(6,13)"><path d='M 0,0 H 1 V 1 H 0 Z'></path></g>
<g transform="translate(9,13)"><path d='M 0,0 H 1 V 1 H 0 Z'></path></g>
<g transform="translate(12,13)"><path d='M 0,0 H 1 V 1 H 0 Z'></path></g>
<g transform="translate(15,13)"><path d='M 0,0 H 1 V 1 H 0 Z'></path></g>
<g transform="translate(17,13)"><path d='M 0,0 H 1 V 1 H 0 Z'></path></g>
<g transform="translate(19,13)"><path d='M 0,0 H 1 V 1 H 0 Z'></path></g>
<g transform="translate(21,13)"><path d='M 0,0 H 1 V 1 H 0 Z'></path></g>
<g transform="translate(2,14)"><path d='M 0,0 H 1 V 1 H 0 Z'></path></g>
<g transform="translate(3,14)"><path d='M 0,0 H 1 V 1 H 0 Z'></path></g>
<g transform="translate(5,14)"><path d='M 0,0 H 1 V 1 H 0 Z'></path></g>
<g transform="translate(8,14)"><path d='M 0,0 H 1 V 1 H 0 Z'></path></g>
<g transform="translate(10,14)"><path d='M 0,0 H 1 V 1 H 0 Z'></path></g>
<g transform="translate(11,14)"><path d='M 0,0 H 1 V 1 H 0 Z'></path></g>
<g transform="translate(12,14)"><path d='M 0,0 H 1 V 1 H 0 Z'></path></g>
<g transform="translate(13,14)"><path d='M 0,0 H 1 V 1 H 0 Z'></path></g>
<g transform="translate(15,14)"><path d='M 0,0 H 1 V 1 H 0 Z'></path></g>
<g transform="translate(18,14)"><path d='M 0,0 H 1 V 1 H 0 Z'></path></g>
<g transform="translate(19,14)"><path d='M 0,0 H 1 V 1 H 0 Z'></path></g>
<g transform="translate(22,14)"><path d='M 0,0 H 1 V 1 H 0 Z'></path></g>
<g transform="translate(10,15)"><path d='M 0,0 H 1 V 1 H 0 Z'></path></g>
<g transform="translate(12,15)"><path d='M 0,0 H 1 V 1 H 0 Z'></path></g>
<g transform="translate(13,15)"><path d='M 0,0 H 1 V 1 H 0 Z'></path></g>
<g transform="translate(16,15)"><path d='M 0,0 H 1 V 1 H 0 Z'></path></g>
<g transform="translate(18,15)"><path d='M 0,0 H 1 V 1 H 0 Z'></path></g>
<g transform="translate(10,16)"><path d='M 0,0 H 1 V 1 H 0 Z'></path></g>
<g transform="translate(11,16)"><path d='M 0,0 H 1 V 1 H 0 Z'></path></g>
<g transform="translate(14,16)"><path d='M 0,0 H 1 V 1 H 0 Z'></path></g>
<g transform="translate(16,16)"><path d='M 0,0 H 1 V 1 H 0 Z'></path></g>
<g transform="translate(18,16)"><path d='M 0,0 H 1 V 1 H 0 Z'></path></g>
<g transform="translate(20,16)"><path d='M 0,0 H 1 V 1 H 0 Z'></path></g>
<g transform="translate(22,16)"><path d='M 0,0 H 1 V 1 H 0 Z'></path></g>
<g transform="translate(10,17)"><path d='M 0,0 H 1 V 1 H 0 Z'></path></g>
<g transform="translate(12,17)"><path d='M 0,0 H 1 V 1 H 0 Z'></path></g>
<g transform="translate(16,17)"><path d='M 0,0 H 1 V 1 H 0 Z'></path></g>
<g transform="translate(19,17)"><path d='M 0,0 H 1 V 1 H 0 Z'></path></g>
<g transform="translate(21,17)"><path d='M 0,0 H 1 V 1 H 0 Z'></path></g>
<g transform="translate(22,17)"><path d='M 0,0 H 1 V 1 H 0 Z'></path></g>
<g transform="translate(11,18)"><path d='M 0,0 H 1 V 1 H 0 Z'></path></g>
<g transform="translate(12,18)"><path d='M 0,0 H 1 V 1 H 0 Z'></path></g>
<g transform="translate(14,18)"><path d='M 0,0 H 1 V 1 H 0 Z'></path></g>
<g transform="translate(15,18)"><path d='M 0,0 H 1 V 1 H 0 Z'></path></g>
<g transform="translate(16,18)"><path d='M 0,0 H 1 V 1 H 0 Z'></path></g>
<g transform="translate(19,18)"><path d='M 0,0 H 1 V 1 H 0 Z'></path></g>
<g transform="translate(22,18)"><path d='M 0,0 H 1 V 1 H 0 Z'></path></g>
<g transform="translate(13,19)"><path d='M 0,0 H 1 V 1 H 0 Z'></path></g>
<g transform="translate(18,19)"><path d='M 0,0 H 1 V 1 H 0 Z'></path></g>
<g transform="translate(19,19)"><path d='M 0,0 H 1 V 1 H 0 Z'></path></g>
<g transform="translate(20,19)"><path d='M 0,0 H 1 V 1 H 0 Z'></path></g>
<g transform="translate(10,20)"><path d='M 0,0 H 1 V 1 H 0 Z'></path></g>
<g transform="translate(15,20)"><path d='M 0,0 H 1 V 1 H 0 Z'></path></g>
<g transform="translate(16,20)"><path d='M 0,0 H 1 V 1 H 0 Z'></path></g>
<g transform="translate(18,20)"><path d='M 0,0 H 1 V 1 H 0 Z'></path></g>
<g transform="translate(20,20)"><path d='M 0,0 H 1 V 1 H 0 Z'></path></g>
<g transform="translate(21,20)"><path d='M 0,0 H 1 V 1 H 0 Z'></path></g>
<g transform="translate(22,20)"><path d='M 0,0 H 1 V 1 H 0 Z'></path></g>
<g transform="translate(11,21)"><path d='M 0,0 H 1 V 1 H 0 Z'></path></g>
<g transform="translate(14,21)"><path d='M 0,0 H 1 V 1 H 0 Z'></path></g>
<g transform="translate(19,21)"><path d='M 0,0 H 1 V 1 H 0 Z'></path></g>
<g transform="translate(11,22)"><path d='M 0,0 H 1 V 1 H 0 Z'></path></g>
<g transform="translate(14,22)"><path d='M 0,0 H 1 V 1 H 0 Z'></path></g>
<g transform="translate(16,22)"><path d='M 0,0 H 1 V 1 H 0 Z'></path></g>
<g transform="translate(17,22)"><path d='M 0,0 H 1 V 1 H 0 Z'></path></g>
<g transform="translate(18,22)"><path d='M 0,0 H 1 V 1 H 0 Z'></path></g>
<g transform="translate(22,22)"><path d='M 0,0 H 1 V 1 H 0 Z'></path></g></g></mask>
    <mask id="0.32874953026943854__maskInner"><g fill="#fff" stroke="#fff" stroke-width="0.02"><g transform="translate(4,4)"><path d='M 0,0 H 1 V 1 H 0 Z'></path></g>
<g transform="translate(5,4)"><path d='M 0,0 H 1 V 1 H 0 Z'></path></g>
<g transform="translate(6,4)"><path d='M 0,0 H 1 V 1 H 0 Z'></path></g>
<g transform="translate(18,4)"><path d='M 0,0 H 1 V 1 H 0 Z'></path></g>
<g transform="translate(19,4)"><path d='M 0,0 H 1 V 1 H 0 Z'></path></g>
<g transform="translate(20,4)"><path d='M 0,0 H 1 V 1 H 0 Z'></path></g>
<g transform="translate(4,5)"><path d='M 0,0 H 1 V 1 H 0 Z'></path></g>
<g transform="translate(5,5)"><path d='M 0,0 H 1 V 1 H 0 Z'></path></g>
<g transform="translate(6,5)"><path d='M 0,0 H 1 V 1 H 0 Z'></path></g>
<g transform="translate(18,5)"><path d='M 0,0 H 1 V 1 H 0 Z'></path></g>
<g transform="translate(19,5)"><path d='M 0,0 H 1 V 1 H 0 Z'></path></g>
<g transform="translate(20,5)"><path d='M 0,0 H 1 V 1 H 0 Z'></path></g>
<g transform="translate(4,6)"><path d='M 0,0 H 1 V 1 H 0 Z'></path></g>
<g transform="translate(5,6)"><path d='M 0,0 H 1 V 1 H 0 Z'></path></g>
<g transform="translate(6,6)"><path d='M 0,0 H 1 V 1 H 0 Z'></path></g>
<g transform="translate(18,6)"><path d='M 0,0 H 1 V 1 H 0 Z'></path></g>
<g transform="translate(19,6)"><path d='M 0,0 H 1 V 1 H 0 Z'></path></g>
<g transform="translate(20,6)"><path d='M 0,0 H 1 V 1 H 0 Z'></path></g>
<g transform="translate(4,18)"><path d='M 0,0 H 1 V 1 H 0 Z'></path></g>
<g transform="translate(5,18)"><path d='M 0,0 H 1 V 1 H 0 Z'></path></g>
<g transform="translate(6,18)"><path d='M 0,0 H 1 V 1 H 0 Z'></path></g>
<g transform="translate(4,19)"><path d='M 0,0 H 1 V 1 H 0 Z'></path></g>
<g transform="translate(5,19)"><path d='M 0,0 H 1 V 1 H 0 Z'></path></g>
<g transform="translate(6,19)"><path d='M 0,0 H 1 V 1 H 0 Z'></path></g>
<g transform="translate(4,20)"><path d='M 0,0 H 1 V 1 H 0 Z'></path></g>
<g transform="translate(5,20)"><path d='M 0,0 H 1 V 1 H 0 Z'></path></g>
<g transform="translate(6,20)"><path d='M 0,0 H 1 V 1 H 0 Z'></path></g></g></mask>
    <mask id="0.32874953026943854__maskOuter"><g fill="#fff" stroke="#fff" stroke-width="0.02"><g transform="translate(2,2)"><path d='M 0,0 H 1 V 1 H 0 Z'></path></g>
<g transform="translate(3,2)"><path d='M 0,0 H 1 V 1 H 0 Z'></path></g>
<g transform="translate(4,2)"><path d='M 0,0 H 1 V 1 H 0 Z'></path></g>
<g transform="translate(5,2)"><path d='M 0,0 H 1 V 1 H 0 Z'></path></g>
<g transform="translate(6,2)"><path d='M 0,0 H 1 V 1 H 0 Z'></path></g>
<g transform="translate(7,2)"><path d='M 0,0 H 1 V 1 H 0 Z'></path></g>
<g transform="translate(8,2)"><path d='M 0,0 H 1 V 1 H 0 Z'></path></g>
<g transform="translate(16,2)"><path d='M 0,0 H 1 V 1 H 0 Z'></path></g>
<g transform="translate(17,2)"><path d='M 0,0 H 1 V 1 H 0 Z'></path></g>
<g transform="translate(18,2)"><path d='M 0,0 H 1 V 1 H 0 Z'></path></g>
<g transform="translate(19,2)"><path d='M 0,0 H 1 V 1 H 0 Z'></path></g>
<g transform="translate(20,2)"><path d='M 0,0 H 1 V 1 H 0 Z'></path></g>
<g transform="translate(21,2)"><path d='M 0,0 H 1 V 1 H 0 Z'></path></g>
<g transform="translate(22,2)"><path d='M 0,0 H 1 V 1 H 0 Z'></path></g>
<g transform="translate(2,3)"><path d='M 0,0 H 1 V 1 H 0 Z'></path></g>
<g transform="translate(8,3)"><path d='M 0,0 H 1 V 1 H 0 Z'></path></g>
<g transform="translate(16,3)"><path d='M 0,0 H 1 V 1 H 0 Z'></path></g>
<g transform="translate(22,3)"><path d='M 0,0 H 1 V 1 H 0 Z'></path></g>
<g transform="translate(2,4)"><path d='M 0,0 H 1 V 1 H 0 Z'></path></g>
<g transform="translate(8,4)"><path d='M 0,0 H 1 V 1 H 0 Z'></path></g>
<g transform="translate(16,4)"><path d='M 0,0 H 1 V 1 H 0 Z'></path></g>
<g transform="translate(22,4)"><path d='M 0,0 H 1 V 1 H 0 Z'></path></g>
<g transform="translate(2,5)"><path d='M 0,0 H 1 V 1 H 0 Z'></path></g>
<g transform="translate(8,5)"><path d='M 0,0 H 1 V 1 H 0 Z'></path></g>
<g transform="translate(16,5)"><path d='M 0,0 H 1 V 1 H 0 Z'></path></g>
<g transform="translate(22,5)"><path d='M 0,0 H 1 V 1 H 0 Z'></path></g>
<g transform="translate(2,6)"><path d='M 0,0 H 1 V 1 H 0 Z'></path></g>
<g transform="translate(8,6)"><path d='M 0,0 H 1 V 1 H 0 Z'></path></g>
<g transform="translate(16,6)"><path d='M 0,0 H 1 V 1 H 0 Z'></path></g>
<g transform="translate(22,6)"><path d='M 0,0 H 1 V 1 H 0 Z'></path></g>
<g transform="translate(2,7)"><path d='M 0,0 H 1 V 1 H 0 Z'></path></g>
<g transform="translate(8,7)"><path d='M 0,0 H 1 V 1 H 0 Z'></path></g>
<g transform="translate(16,7)"><path d='M 0,0 H 1 V 1 H 0 Z'></path></g>
<g transform="translate(22,7)"><path d='M 0,0 H 1 V 1 H 0 Z'></path></g>
<g transform="translate(2,8)"><path d='M 0,0 H 1 V 1 H 0 Z'></path></g>
<g transform="translate(3,8)"><path d='M 0,0 H 1 V 1 H 0 Z'></path></g>
<g transform="translate(4,8)"><path d='M 0,0 H 1 V 1 H 0 Z'></path></g>
<g transform="translate(5,8)"><path d='M 0,0 H 1 V 1 H 0 Z'></path></g>
<g transform="translate(6,8)"><path d='M 0,0 H 1 V 1 H 0 Z'></path></g>
<g transform="translate(7,8)"><path d='M 0,0 H 1 V 1 H 0 Z'></path></g>
<g transform="translate(8,8)"><path d='M 0,0 H 1 V 1 H 0 Z'></path></g>
<g transform="translate(16,8)"><path d='M 0,0 H 1 V 1 H 0 Z'></path></g>
<g transform="translate(17,8)"><path d='M 0,0 H 1 V 1 H 0 Z'></path></g>
<g transform="translate(18,8)"><path d='M 0,0 H 1 V 1 H 0 Z'></path></g>
<g transform="translate(19,8)"><path d='M 0,0 H 1 V 1 H 0 Z'></path></g>
<g transform="translate(20,8)"><path d='M 0,0 H 1 V 1 H 0 Z'></path></g>
<g transform="translate(21,8)"><path d='M 0,0 H 1 V 1 H 0 Z'></path></g>
<g transform="translate(22,8)"><path d='M 0,0 H 1 V 1 H 0 Z'></path></g>
<g transform="translate(2,16)"><path d='M 0,0 H 1 V 1 H 0 Z'></path></g>
<g transform="translate(3,16)"><path d='M 0,0 H 1 V 1 H 0 Z'></path></g>
<g transform="translate(4,16)"><path d='M 0,0 H 1 V 1 H 0 Z'></path></g>
<g transform="translate(5,16)"><path d='M 0,0 H 1 V 1 H 0 Z'></path></g>
<g transform="translate(6,16)"><path d='M 0,0 H 1 V 1 H 0 Z'></path></g>
<g transform="translate(7,16)"><path d='M 0,0 H 1 V 1 H 0 Z'></path></g>
<g transform="translate(8,16)"><path d='M 0,0 H 1 V 1 H 0 Z'></path></g>
<g transform="translate(2,17)"><path d='M 0,0 H 1 V 1 H 0 Z'></path></g>
<g transform="translate(8,17)"><path d='M 0,0 H 1 V 1 H 0 Z'></path></g>
<g transform="translate(2,18)"><path d='M 0,0 H 1 V 1 H 0 Z'></path></g>
<g transform="translate(8,18)"><path d='M 0,0 H 1 V 1 H 0 Z'></path></g>
<g transform="translate(2,19)"><path d='M 0,0 H 1 V 1 H 0 Z'></path></g>
<g transform="translate(8,19)"><path d='M 0,0 H 1 V 1 H 0 Z'></path></g>
<g transform="translate(2,20)"><path d='M 0,0 H 1 V 1 H 0 Z'></path></g>
<g transform="translate(8,20)"><path d='M 0,0 H 1 V 1 H 0 Z'></path></g>
<g transform="translate(2,21)"><path d='M 0,0 H 1 V 1 H 0 Z'></path></g>
<g transform="translate(8,21)"><path d='M 0,0 H 1 V 1 H 0 Z'></path></g>
<g transform="translate(2,22)"><path d='M 0,0 H 1 V 1 H 0 Z'></path></g>
<g transform="translate(3,22)"><path d='M 0,0 H 1 V 1 H 0 Z'></path></g>
<g transform="translate(4,22)"><path d='M 0,0 H 1 V 1 H 0 Z'></path></g>
<g transform="translate(5,22)"><path d='M 0,0 H 1 V 1 H 0 Z'></path></g>
<g transform="translate(6,22)"><path d='M 0,0 H 1 V 1 H 0 Z'></path></g>
<g transform="translate(7,22)"><path d='M 0,0 H 1 V 1 H 0 Z'></path></g>
<g transform="translate(8,22)"><path d='M 0,0 H 1 V 1 H 0 Z'></path></g></g></mask>
    <mask id="0.32874953026943854__maskCenter"><g fill="#fff" stroke="#fff" stroke-width="0.04">undefined</g></mask>
    </defs>
    <rect x="0" y="0" width="100%" height="100%" fill="white"></rect>
    <rect x="0" y="0" width="100%" height="100%" mask="url(#0.32874953026943854__maskData)" fill="url(#0.32874953026943854__patternData)"></rect>
    <rect x="0" y="0" width="100%" height="100%" mask="url(#0.32874953026943854__maskInner)" fill="url(#0.32874953026943854__patternInner)"></rect>
    <rect x="0" y="0" width="100%" height="100%" mask="url(#0.32874953026943854__maskOuter)" fill="url(#0.32874953026943854__patternOuter)"></rect>
    </svg>